<?xml version="1.0" standalone="no"?>
<!DOCTYPE svg PUBLIC "-//W3C//DTD SVG 20010904//EN"
 "http://www.w3.org/TR/2001/REC-SVG-20010904/DTD/svg10.dtd">
<svg version="1.0" xmlns="http://www.w3.org/2000/svg"
 width="128.000000pt" height="128.000000pt" viewBox="0 0 128.000000 128.000000"
 preserveAspectRatio="xMidYMid meet">

<g transform="translate(0.000000,128.000000) scale(0.100000,-0.100000)"
fill="#000000" stroke="none">
<path d="M521 1254 c-216 -58 -369 -292 -333 -510 17 -104 62 -187 142 -265
l70 -67 0 -144 c0 -158 10 -193 63 -232 26 -19 43 -21 175 -21 126 0 151 3
174 18 57 39 63 58 66 233 4 161 4 162 29 175 41 22 111 107 142 173 167 350
-155 740 -528 640z m282 -98 c74 -35 147 -109 184 -183 25 -52 28 -68 28 -158
0 -89 -3 -107 -29 -163 -20 -43 -47 -80 -88 -117 l-59 -55 -80 0 -79 0 0 158
0 158 46 44 c58 57 69 77 53 96 -19 23 -43 16 -84 -26 -21 -22 -44 -40 -50
-40 -6 0 -29 18 -50 40 -43 44 -78 51 -95 20 -10 -18 -3 -28 45 -79 l55 -58 0
-156 0 -157 -77 0 c-67 0 -82 3 -115 27 -21 14 -55 48 -74 74 -152 207 -63
500 178 590 80 29 213 22 291 -15z m-3 -888 c0 -186 7 -178 -159 -178 -69 0
-131 4 -137 8 -27 17 -34 56 -34 175 0 68 3 127 7 130 3 4 78 7 165 7 l158 0
0 -142z"/>
</g>
</svg>
